# xmcd
#
# Track frame offsets:
#	182
#	13320
#	27447
#	39100
#	47855
#	59967
#	72405
#	83502
#	96272
#	111040
#	122662
#	137422
#
# Disc length: 1939 seconds
#
# Revision: 2
# Processed by: cddbd v1.5.2PL0 Copyright (c) Steve Scherf et al.
# Submitted via: EZCDAudioConverter 8.2.2.1
#
DISCID=a307910c
DTITLE=LEANDRO and LEONARDO - EXPLOSÃO DE DESEJOS [CD 179419-2) CHANTECLER
DYEAR=1986
DGENRE=SERTANEJO
TTITLE0=CONTRADIÇÕES (BY GILMAR SINISTRO)
TTITLE1=FILME DE AMOR (BY GILMAR SINISTRO)
TTITLE2=EXPLOSÃO DE DESEJOS (BY GILMAR SINISTRO)
TTITLE3=EU NEM SEI EXISTIR (BY GILMAR SINISTRO)
TTITLE4=PÉ DE MILHO (BY GILMAR SINISTRO)
TTITLE5=TEATRO DA VIDA (BY GILMAR SINISTRO)
TTITLE6=MUROS COLORIDOS (BY GILMAR SINISTRO)
TTITLE7=FUI UM TOLO (BY GILMAR SINISTRO)
TTITLE8=SUBLIME RENÚNCIA (BY GILMAR SINISTRO)
TTITLE9=RELIENTA (BY GILMAR SINISTRO)
TTITLE10=MOÇA BONITA DO CAMPO (BY GILMAR SINISTRO)
TTITLE11=VOCÊ NASCEU PARA AMAR (BY GILMAR SINISTRO)
EXTD=
EXTT0=
EXTT1=
EXTT2=
EXTT3=
EXTT4=
EXTT5=
EXTT6=
EXTT7=
EXTT8=
EXTT9=
EXTT10=
EXTT11=
PLAYORDER=
